<svg width="16" height="16" viewBox="0 0 16 16" fill="none" xmlns="http://www.w3.org/2000/svg">
<g clip-path="url(#clip0_9919_27568)">
<path d="M15.7622 9.9308C14.6947 14.2139 10.3566 16.8293 6.06567 15.7612C1.78256 14.6904 -0.828651 10.3523 0.238856 6.0692C1.30636 1.7861 5.64181 -0.829307 9.9223 0.238849C14.2159 1.29392 16.8271 5.64508 15.7622 9.9308Z" fill="#E84142" fill-opacity="0.2"/>
<path d="M4.15791 11.2958H5.71046C6.07604 11.2958 6.2588 11.2958 6.42191 11.2505C6.60077 11.1975 6.76388 11.1032 6.89945 10.9735C7.02402 10.8547 7.1139 10.6974 7.29126 10.3871L7.29648 10.378L9.3101 6.81842C9.48895 6.50594 9.57739 6.34871 9.6167 6.18361C9.65993 6.00477 9.65993 5.81611 9.6167 5.63726C9.57773 5.47354 9.48842 5.31755 9.31246 5.01012L9.31217 5.00951L9.30812 5.00248L8.52006 3.62678C8.35695 3.33984 8.2744 3.19639 8.17022 3.14332C8.05821 3.08634 7.92457 3.08634 7.81256 3.14332C7.70838 3.19639 7.62583 3.33984 7.46273 3.62678L3.62922 10.3839C3.46804 10.6669 3.38748 10.8084 3.39337 10.9243C3.40124 11.0501 3.46611 11.1641 3.57222 11.2329C3.67051 11.2958 3.83164 11.2958 4.15791 11.2958Z" fill="#E84142"/>
<path d="M11.8559 11.2959H9.63124C9.303 11.2959 9.13796 11.2959 9.04165 11.233C8.93553 11.1643 8.87067 11.0483 8.86279 10.9225C8.85695 10.8075 8.93819 10.6673 9.10072 10.3867L9.10453 10.3801L10.2149 8.47377C10.3781 8.19274 10.4606 8.05319 10.5628 8.00015C10.6748 7.94315 10.8065 7.94315 10.9185 8.00015C11.02 8.05183 11.099 8.18554 11.2556 8.45038L11.2683 8.47181L12.3826 10.3781L12.3987 10.4059C12.5532 10.6724 12.632 10.8084 12.6264 10.9206C12.6204 11.0463 12.5536 11.1623 12.4475 11.2311C12.3492 11.2959 12.1841 11.2959 11.8559 11.2959Z" fill="#E84142"/>
</g>
<defs>
<clipPath id="clip0_9919_27568">
<rect width="16" height="16" rx="8" fill="white"/>
</clipPath>
</defs>
</svg>
