<svg width="16" height="16" viewBox="0 0 16 16" fill="none" xmlns="http://www.w3.org/2000/svg">
<rect width="16" height="16" rx="8" fill="#09F6A7" fill-opacity="0.2"/>
<path d="M4.80227 4.08118H8.84027H12.8783L12.904 4.09305C12.9347 4.10691 12.9713 4.14452 12.9871 4.17718C12.9951 4.19598 12.998 4.20984 12.998 4.24349C12.998 4.28011 12.9951 4.29 12.9842 4.31376C12.9723 4.33652 12.8258 4.48498 12.1568 5.15402C11.5422 5.76764 11.3363 5.97053 11.3155 5.98339C11.2997 5.9923 11.271 6.00517 11.2502 6.01308L11.2136 6.02694H7.16964C3.22369 6.02694 3.1257 6.02694 3.10195 6.01803C3.06434 6.00319 3.03663 5.97745 3.01783 5.93885C3.00298 5.90916 3.001 5.90026 3.001 5.86562C3.001 5.83197 3.00298 5.82108 3.01486 5.79832C3.02673 5.77555 3.15639 5.64293 3.84522 4.95509C4.73497 4.06633 4.67855 4.11879 4.76466 4.09206L4.80227 4.08118ZM7.14391 7.00576C10.7949 7.00576 11.171 7.00576 11.2067 7.01269C11.2284 7.01664 11.266 7.02951 11.2888 7.0404L11.3314 7.06019L12.1508 7.87868C12.8407 8.5685 12.9723 8.70112 12.9832 8.72488C12.9941 8.74764 12.996 8.75853 12.996 8.79218C12.996 8.82781 12.9931 8.83671 12.9792 8.86541C12.9604 8.90401 12.9327 8.92975 12.8931 8.94459C12.8684 8.95449 12.804 8.95449 8.83631 8.9535C4.93786 8.9535 4.80524 8.9535 4.76961 8.9436C4.72705 8.93271 4.70033 8.91985 4.66074 8.89115C4.64391 8.87927 4.26881 8.50813 3.82741 8.06573C3.1742 7.41154 3.02179 7.25714 3.01288 7.23636C2.99605 7.20172 2.99605 7.13739 3.0109 7.10275C3.02574 7.07009 3.05939 7.03644 3.09205 7.01961L3.12076 7.00576H7.14391ZM8.82839 9.97092C12.5111 9.97092 12.8713 9.97092 12.8931 9.97784C12.9317 9.99071 12.9634 10.0194 12.9832 10.058C12.998 10.0877 13 10.0966 13 10.1322C13 10.1659 12.997 10.1768 12.9861 10.1995C12.9743 10.2223 12.8436 10.3559 12.1538 11.0457L11.3343 11.8642L11.2918 11.884C11.268 11.8949 11.2314 11.9078 11.2106 11.9117C11.176 11.9187 10.7445 11.9196 7.1548 11.9187C3.93034 11.9187 3.13362 11.9187 3.11779 11.9117C3.08513 11.9018 3.0683 11.8909 3.04554 11.8662C3.01288 11.8306 3.00298 11.8039 3.00298 11.7534C3.00298 11.7187 3.00496 11.7059 3.01486 11.6861C3.02475 11.6663 3.17717 11.5109 3.84225 10.8458C4.45884 10.2292 4.6647 10.0263 4.68647 10.0145C4.70231 10.0056 4.73101 9.9917 4.75179 9.98477L4.78841 9.97092H8.82839Z" fill="#09F6A7"/>
</svg>
