<?xml version="1.0" encoding="UTF-8"?>
<svg xmlns="http://www.w3.org/2000/svg" viewBox="30 30 112 112">
  <path fill="#f8fafc" d="M112.51,49.48h-11.65l-8.24-8.24c-1.81-1.81-4.23-2.81-6.81-2.81s-5,1-6.81,2.81l-13.48,13.48c-1.81,1.81-2.81,4.23-2.81,6.81s1,4.99,2.81,6.81l13.48,13.48c.47.47.85,1.02,1.13,1.63-.62.23-1.28.35-1.95.35h-19.07c-5.31,0-9.63,4.32-9.63,9.63v19.07c0,5.31,4.32,9.63,9.63,9.63h11.65l8.24,8.24c1.81,1.81,4.23,2.81,6.81,2.81s5-1,6.81-2.81l13.48-13.48c1.81-1.81,2.81-4.23,2.81-6.81s-1-4.99-2.81-6.81l-13.48-13.48c-.47-.47-.85-1.02-1.13-1.63.62-.23,1.28-.35,1.95-.35h19.07c5.31,0,9.63-4.32,9.63-9.63v-19.07c0-5.31-4.32-9.63-9.63-9.63ZM85.81,129.18c-1.51,0-2.92-.58-3.98-1.64l-5.41-5.41h1.76c5.31,0,9.63-4.32,9.63-9.63v-19.07c0-.89.21-1.76.61-2.54.38.62.84,1.2,1.37,1.72l13.48,13.48c1.06,1.06,1.64,2.47,1.64,3.98s-.58,2.92-1.64,3.98l-13.48,13.48c-1.06,1.06-2.47,1.64-3.98,1.64ZM59.11,87.81h19.07c.74,0,1.47-.08,2.18-.25-.27.84-.73,1.6-1.36,2.23l-13.48,13.48c-3.75,3.75-3.75,9.86,0,13.62l1.25,1.25h-7.65c-3.1,0-5.63-2.52-5.63-5.63v-19.07c0-3.1,2.52-5.63,5.63-5.63ZM85.81,42.44c1.51,0,2.92.58,3.98,1.64l5.41,5.41h-1.76c-5.31,0-9.63,4.32-9.63,9.63v19.07c0,.89-.21,1.76-.61,2.54-.38-.62-.84-1.2-1.37-1.72l-13.48-13.48c-1.06-1.06-1.64-2.47-1.64-3.98s.58-2.92,1.64-3.98l13.48-13.48c1.06-1.06,2.47-1.64,3.98-1.64ZM92.62,81.83l13.48-13.48c1.81-1.81,2.81-4.23,2.81-6.81s-1-5-2.81-6.81l-1.25-1.25h7.65c3.1,0,5.63,2.52,5.63,5.63v19.07c0,3.1-2.52,5.63-5.63,5.63h-19.07c-.74,0-1.47.08-2.18.25.27-.84.73-1.6,1.36-2.23ZM103.27,65.52l-13.48,13.48c-1.81,1.81-2.81,4.23-2.81,6.81,0,.16,0,.33.01.49-2.03,1.83-3.18,4.4-3.18,7.14v19.07c0,3.1-2.52,5.63-5.63,5.63h-5.76l-4.07-4.07c-2.19-2.19-2.19-5.77,0-7.96l13.48-13.48c1.81-1.81,2.81-4.23,2.81-6.81,0-.16,0-.33-.01-.49,2.03-1.83,3.18-4.4,3.18-7.14v-19.07c0-3.1,2.52-5.63,5.63-5.63h5.76l4.07,4.07c1.06,1.06,1.64,2.47,1.64,3.98s-.58,2.92-1.64,3.98Z"/>
</svg>
